<svg id="Gradient" height="512" viewBox="0 0 512 512" width="512" xmlns="http://www.w3.org/2000/svg" xmlns:xlink="http://www.w3.org/1999/xlink"><linearGradient id="linear-gradient" gradientUnits="userSpaceOnUse" x1="256" x2="256" y1="496" y2="16"><stop offset="0" stop-color="#12c0e7"/><stop offset=".5" stop-color="#c271eb"/><stop offset="1" stop-color="#f44f5a"/></linearGradient><path d="m168 24v16a8.009 8.009 0 0 0 8 8h160a24.028 24.028 0 0 1 24 24v16a24.028 24.028 0 0 1 -24 24h-64a8.009 8.009 0 0 0 -8 8v16a8 8 0 0 1 -16 0v-16a24.028 24.028 0 0 1 24-24h64a8.009 8.009 0 0 0 8-8v-16a8.009 8.009 0 0 0 -8-8h-160a24.028 24.028 0 0 1 -24-24v-16a8 8 0 0 1 16 0zm-48 168h40v-24a8 8 0 0 1 8-8h176a8 8 0 0 1 8 8v24h40a8 8 0 0 1 8 8v32a8 8 0 0 1 -8 8h-8.938l-6.009 48.078a7.984 7.984 0 0 1 6.867 9.053l-16 112a8 8 0 0 1 -6.847 6.789l-9.135 73.072a8 8 0 0 1 -7.938 7.008h-176a8 8 0 0 1 -7.938-7.008l-9.134-73.072a7.993 7.993 0 0 1 -6.847-6.789l-16-112a7.984 7.984 0 0 1 6.867-9.053l-6.01-48.078h-8.938a8 8 0 0 1 -8-8v-32a8 8 0 0 1 8-8zm224.938 224h-177.876l8 64h161.876zm21.838-112h-221.552l13.714 96h194.124zm.162-64h-221.876l6 48h209.876zm-190.938-48h160v-16h-160zm-48 32h256v-16h-256zm80 128c0-17.944 21.084-32 48-32s48 14.056 48 32-21.084 32-48 32-48-14.056-48-32zm16 0c0 7.553 13.685 16 32 16s32-8.447 32-16-13.686-16-32-16-32 8.447-32 16z" fill="url(#linear-gradient)"/></svg>